<?xml version="1.0" standalone="no"?>
<!DOCTYPE svg PUBLIC "-//W3C//DTD SVG 20010904//EN"
 "http://www.w3.org/TR/2001/REC-SVG-20010904/DTD/svg10.dtd">
<svg version="1.0" xmlns="http://www.w3.org/2000/svg"
 width="700.000000pt" height="700.000000pt" viewBox="0 0 700.000000 700.000000"
 preserveAspectRatio="xMidYMid meet">
<metadata>
Created by potrace 1.14, written by Peter Selinger 2001-2017
</metadata>
<g transform="translate(0.000000,700.000000) scale(0.100000,-0.100000)"
fill="#000000" stroke="none">
<path d="M0 3500 l0 -3500 3500 0 3500 0 0 3500 0 3500 -3500 0 -3500 0 0
-3500z m3766 1649 c225 -22 432 -78 601 -162 240 -121 438 -333 531 -567 37
-93 78 -268 66 -279 -5 -5 -103 -14 -219 -20 -115 -7 -307 -18 -425 -25 -118
-8 -218 -12 -222 -9 -5 2 -8 12 -8 22 0 44 -71 160 -135 219 -114 107 -241
152 -433 152 -310 0 -522 -136 -522 -335 0 -118 69 -208 204 -270 94 -43 169
-62 556 -140 179 -36 372 -77 430 -91 436 -107 714 -317 815 -614 74 -219 53
-497 -55 -716 -158 -319 -512 -563 -950 -654 -168 -34 -281 -44 -495 -44 -451
2 -777 85 -1059 271 -93 62 -250 219 -311 311 -81 125 -145 288 -170 440 l-7
42 49 0 c26 0 210 9 408 20 198 11 387 20 421 20 l61 0 13 -42 c52 -177 181
-296 377 -350 104 -28 351 -31 457 -5 189 47 317 161 333 296 17 145 -84 263
-287 333 -30 10 -242 57 -471 103 -263 53 -460 99 -535 123 -389 128 -618 344
-705 667 -19 67 -22 107 -22 245 0 145 3 176 25 261 68 254 237 461 491 603
150 84 404 163 598 185 52 6 108 13 124 15 71 8 370 5 471 -5z"/>
</g>
</svg>
